<mxfile host="app.diagrams.net" modified="2023-05-19T07:55:07.108Z" agent="Mozilla/5.0 (Windows NT 10.0; Win64; x64) AppleWebKit/537.36 (KHTML, like Gecko) Chrome/113.0.0.0 Safari/537.36" etag="QWdarPYD-48vXEKtN-D8" version="21.3.2" type="github">
  <diagram id="C5RBs43oDa-KdzZeNtuy" name="Page-1">
    <mxGraphModel dx="1050" dy="581" grid="1" gridSize="10" guides="1" tooltips="1" connect="1" arrows="1" fold="1" page="1" pageScale="1" pageWidth="827" pageHeight="1169" math="0" shadow="0">
      <root>
        <mxCell id="WIyWlLk6GJQsqaUBKTNV-0" />
        <mxCell id="WIyWlLk6GJQsqaUBKTNV-1" parent="WIyWlLk6GJQsqaUBKTNV-0" />
        <mxCell id="XoclBzV8SB7zi0k8fAKR-11" style="edgeStyle=orthogonalEdgeStyle;rounded=0;orthogonalLoop=1;jettySize=auto;html=1;" edge="1" parent="WIyWlLk6GJQsqaUBKTNV-1" source="XoclBzV8SB7zi0k8fAKR-0" target="XoclBzV8SB7zi0k8fAKR-1">
          <mxGeometry relative="1" as="geometry" />
        </mxCell>
        <mxCell id="XoclBzV8SB7zi0k8fAKR-12" style="edgeStyle=orthogonalEdgeStyle;rounded=0;orthogonalLoop=1;jettySize=auto;html=1;" edge="1" parent="WIyWlLk6GJQsqaUBKTNV-1" source="XoclBzV8SB7zi0k8fAKR-0" target="XoclBzV8SB7zi0k8fAKR-2">
          <mxGeometry relative="1" as="geometry" />
        </mxCell>
        <mxCell id="XoclBzV8SB7zi0k8fAKR-13" style="edgeStyle=orthogonalEdgeStyle;rounded=0;orthogonalLoop=1;jettySize=auto;html=1;" edge="1" parent="WIyWlLk6GJQsqaUBKTNV-1" source="XoclBzV8SB7zi0k8fAKR-0" target="XoclBzV8SB7zi0k8fAKR-3">
          <mxGeometry relative="1" as="geometry" />
        </mxCell>
        <mxCell id="XoclBzV8SB7zi0k8fAKR-0" value="&lt;p style=&quot;margin:0px;margin-top:4px;text-align:center;&quot;&gt;&lt;b&gt;Hayvan&lt;/b&gt;&lt;/p&gt;&lt;hr size=&quot;1&quot;&gt;&lt;p style=&quot;margin:0px;margin-left:4px;&quot;&gt;+ field: tür;&lt;/p&gt;&lt;p style=&quot;margin:0px;margin-left:4px;&quot;&gt;+ field: agirlik;&lt;br&gt;&lt;/p&gt;&lt;p style=&quot;margin:0px;margin-left:4px;&quot;&gt;+ field: yas&lt;span style=&quot;background-color: initial;&quot;&gt;;&lt;/span&gt;&lt;/p&gt;&lt;hr size=&quot;1&quot;&gt;&lt;p style=&quot;border-color: var(--border-color); margin: 0px 0px 0px 4px;&quot;&gt;+ method(): getDosage();&lt;/p&gt;&lt;p style=&quot;border-color: var(--border-color); margin: 0px 0px 0px 4px;&quot;&gt;+ method(): getFeedSchedule();&lt;/p&gt;" style="verticalAlign=top;align=left;overflow=fill;fontSize=12;fontFamily=Helvetica;html=1;whiteSpace=wrap;" vertex="1" parent="WIyWlLk6GJQsqaUBKTNV-1">
          <mxGeometry x="314" y="110" width="200" height="120" as="geometry" />
        </mxCell>
        <mxCell id="XoclBzV8SB7zi0k8fAKR-14" style="edgeStyle=orthogonalEdgeStyle;rounded=0;orthogonalLoop=1;jettySize=auto;html=1;entryX=0.5;entryY=0;entryDx=0;entryDy=0;" edge="1" parent="WIyWlLk6GJQsqaUBKTNV-1" source="XoclBzV8SB7zi0k8fAKR-1" target="XoclBzV8SB7zi0k8fAKR-4">
          <mxGeometry relative="1" as="geometry" />
        </mxCell>
        <mxCell id="XoclBzV8SB7zi0k8fAKR-15" style="edgeStyle=orthogonalEdgeStyle;rounded=0;orthogonalLoop=1;jettySize=auto;html=1;entryX=0.5;entryY=0;entryDx=0;entryDy=0;" edge="1" parent="WIyWlLk6GJQsqaUBKTNV-1" source="XoclBzV8SB7zi0k8fAKR-1" target="XoclBzV8SB7zi0k8fAKR-5">
          <mxGeometry relative="1" as="geometry" />
        </mxCell>
        <mxCell id="XoclBzV8SB7zi0k8fAKR-1" value="Atlar" style="html=1;whiteSpace=wrap;" vertex="1" parent="WIyWlLk6GJQsqaUBKTNV-1">
          <mxGeometry x="100" y="290" width="110" height="50" as="geometry" />
        </mxCell>
        <mxCell id="XoclBzV8SB7zi0k8fAKR-16" style="edgeStyle=orthogonalEdgeStyle;rounded=0;orthogonalLoop=1;jettySize=auto;html=1;entryX=0.5;entryY=0;entryDx=0;entryDy=0;" edge="1" parent="WIyWlLk6GJQsqaUBKTNV-1" source="XoclBzV8SB7zi0k8fAKR-2" target="XoclBzV8SB7zi0k8fAKR-6">
          <mxGeometry relative="1" as="geometry" />
        </mxCell>
        <mxCell id="XoclBzV8SB7zi0k8fAKR-17" style="edgeStyle=orthogonalEdgeStyle;rounded=0;orthogonalLoop=1;jettySize=auto;html=1;entryX=0.5;entryY=0;entryDx=0;entryDy=0;" edge="1" parent="WIyWlLk6GJQsqaUBKTNV-1" source="XoclBzV8SB7zi0k8fAKR-2" target="XoclBzV8SB7zi0k8fAKR-7">
          <mxGeometry relative="1" as="geometry" />
        </mxCell>
        <mxCell id="XoclBzV8SB7zi0k8fAKR-2" value="Kedigiller" style="html=1;whiteSpace=wrap;" vertex="1" parent="WIyWlLk6GJQsqaUBKTNV-1">
          <mxGeometry x="359" y="290" width="110" height="50" as="geometry" />
        </mxCell>
        <mxCell id="XoclBzV8SB7zi0k8fAKR-18" style="edgeStyle=orthogonalEdgeStyle;rounded=0;orthogonalLoop=1;jettySize=auto;html=1;entryX=0.5;entryY=0;entryDx=0;entryDy=0;" edge="1" parent="WIyWlLk6GJQsqaUBKTNV-1" source="XoclBzV8SB7zi0k8fAKR-3" target="XoclBzV8SB7zi0k8fAKR-10">
          <mxGeometry relative="1" as="geometry" />
        </mxCell>
        <mxCell id="XoclBzV8SB7zi0k8fAKR-19" style="edgeStyle=orthogonalEdgeStyle;rounded=0;orthogonalLoop=1;jettySize=auto;html=1;entryX=0.5;entryY=0;entryDx=0;entryDy=0;" edge="1" parent="WIyWlLk6GJQsqaUBKTNV-1" source="XoclBzV8SB7zi0k8fAKR-3" target="XoclBzV8SB7zi0k8fAKR-9">
          <mxGeometry relative="1" as="geometry" />
        </mxCell>
        <mxCell id="XoclBzV8SB7zi0k8fAKR-3" value="Kemirgenler" style="html=1;whiteSpace=wrap;" vertex="1" parent="WIyWlLk6GJQsqaUBKTNV-1">
          <mxGeometry x="610" y="290" width="110" height="50" as="geometry" />
        </mxCell>
        <mxCell id="XoclBzV8SB7zi0k8fAKR-4" value="Zebra" style="html=1;whiteSpace=wrap;" vertex="1" parent="WIyWlLk6GJQsqaUBKTNV-1">
          <mxGeometry x="30" y="390" width="80" height="50" as="geometry" />
        </mxCell>
        <mxCell id="XoclBzV8SB7zi0k8fAKR-5" value="Eşek" style="html=1;whiteSpace=wrap;" vertex="1" parent="WIyWlLk6GJQsqaUBKTNV-1">
          <mxGeometry x="160" y="390" width="70" height="50" as="geometry" />
        </mxCell>
        <mxCell id="XoclBzV8SB7zi0k8fAKR-6" value="Aslan" style="html=1;whiteSpace=wrap;" vertex="1" parent="WIyWlLk6GJQsqaUBKTNV-1">
          <mxGeometry x="290" y="390" width="90" height="50" as="geometry" />
        </mxCell>
        <mxCell id="XoclBzV8SB7zi0k8fAKR-7" value="Kaplan" style="html=1;whiteSpace=wrap;" vertex="1" parent="WIyWlLk6GJQsqaUBKTNV-1">
          <mxGeometry x="430" y="390" width="70" height="50" as="geometry" />
        </mxCell>
        <mxCell id="XoclBzV8SB7zi0k8fAKR-9" value="Fare" style="html=1;whiteSpace=wrap;" vertex="1" parent="WIyWlLk6GJQsqaUBKTNV-1">
          <mxGeometry x="700" y="390" width="70" height="50" as="geometry" />
        </mxCell>
        <mxCell id="XoclBzV8SB7zi0k8fAKR-10" value="Kunduz" style="html=1;whiteSpace=wrap;" vertex="1" parent="WIyWlLk6GJQsqaUBKTNV-1">
          <mxGeometry x="560" y="390" width="70" height="50" as="geometry" />
        </mxCell>
      </root>
    </mxGraphModel>
  </diagram>
</mxfile>
